<svg xmlns="http://www.w3.org/2000/svg" id="mall-map" width="1200" height="800" viewBox="0 0 1200 800">
    
    <rect x="0" y="0" width="1200" height="800" fill="white" stroke="#333" stroke-width="2" />

    
    <rect id="id_central_atrium" data-title="Central Atrium" x="500" y="200" width="200" height="400" fill="#f8f9fa" stroke="#333" stroke-width="2" />
    <text x="600" y="420" font-size="16" text-anchor="middle" fill="#333">Central Atrium</text>

    
    <rect x="0" y="400" width="500" height="40" fill="white" stroke="#333" stroke-width="1" />
    <rect x="700" y="400" width="500" height="40" fill="white" stroke="#333" stroke-width="1" />

    
    <rect x="300" y="0" width="40" height="200" fill="white" stroke="#333" stroke-width="1" />
    <rect x="300" y="600" width="40" height="200" fill="white" stroke="#333" stroke-width="1" />
    <rect x="600" y="0" width="40" height="200" fill="white" stroke="#333" stroke-width="1" />
    <rect x="600" y="600" width="40" height="200" fill="white" stroke="#333" stroke-width="1" />
    <rect x="900" y="0" width="40" height="200" fill="white" stroke="#333" stroke-width="1" />
    <rect x="900" y="600" width="40" height="200" fill="white" stroke="#333" stroke-width="1" />

    
    <rect id="id_apple_store" data-title="Apple Store" x="20" y="20" width="260" height="160" fill="#f0f0f0" stroke="#333" stroke-width="1" />
    <text x="150" y="100" font-size="14" text-anchor="middle" fill="#333">Apple Store</text>

    <rect id="id_samsung" data-title="Samsung" x="340" y="20" width="140" height="160" fill="#f0f0f0" stroke="#333" stroke-width="1" />
    <text x="410" y="100" font-size="14" text-anchor="middle" fill="#333">Samsung</text>

    <rect id="id_electronics_world" data-title="Electronics World" x="640" y="20" width="240" height="160" fill="#f0f0f0" stroke="#333" stroke-width="1" />
    <text x="760" y="100" font-size="14" text-anchor="middle" fill="#333">Electronics World</text>

    <rect id="id_home_theater" data-title="Home Theater" x="940" y="20" width="240" height="160" fill="#f0f0f0" stroke="#333" stroke-width="1" />
    <text x="1060" y="100" font-size="14" text-anchor="middle" fill="#333">Home Theater</text>

    
    <rect id="id_fashion_outlet" data-title="Fashion Outlet" x="20" y="620" width="260" height="160" fill="#f0f0f0" stroke="#333" stroke-width="1" />
    <text x="150" y="700" font-size="14" text-anchor="middle" fill="#333">Fashion Outlet</text>

    <rect id="id_zara" data-title="Zara" x="340" y="620" width="140" height="160" fill="#f0f0f0" stroke="#333" stroke-width="1" />
    <text x="410" y="700" font-size="14" text-anchor="middle" fill="#333">Zara</text>

    <rect id="id_macys" data-title="Macy's" x="640" y="620" width="240" height="160" fill="#f0f0f0" stroke="#333" stroke-width="1" />
    <text x="760" y="700" font-size="14" text-anchor="middle" fill="#333">Macy's</text>

    <rect id="id_nordstrom" data-title="Nordstrom" x="940" y="620" width="240" height="160" fill="#f0f0f0" stroke="#333" stroke-width="1" />
    <text x="1060" y="700" font-size="14" text-anchor="middle" fill="#333">Nordstrom</text>

    
    <rect id="id_nike" data-title="Nike" x="20" y="220" width="160" height="160" fill="#f0f0f0" stroke="#333" stroke-width="1" />
    <text x="40" y="300" font-size="14" transform="rotate(-90, 40, 300)" fill="#333">Nike</text>

    <rect id="id_adidas" data-title="Adidas" x="20" y="440" width="160" height="160" fill="#f0f0f0" stroke="#333" stroke-width="1" />
    <text x="40" y="520" font-size="14" transform="rotate(-90, 40, 520)" fill="#333">Adidas</text>

    
    <rect id="id_louis_vuitton" data-title="Louis Vuitton" x="1020" y="220" width="160" height="160" fill="#f0f0f0" stroke="#333" stroke-width="1" />
    <text x="1140" y="300" font-size="14" transform="rotate(90, 1140, 300)" fill="#333">Louis Vuitton</text>

    <rect id="id_gucci" data-title="Gucci" x="1020" y="440" width="160" height="160" fill="#f0f0f0" stroke="#333" stroke-width="1" />
    <text x="1140" y="520" font-size="14" transform="rotate(90, 1140, 520)" fill="#333">Gucci</text>

    
    <rect id="id_swatch" data-title="Swatch" x="200" y="220" width="80" height="160" fill="#f0f0f0" stroke="#333" stroke-width="1" />
    <text x="240" y="300" font-size="12" transform="rotate(-90, 240, 300)" fill="#333">Swatch</text>

    <rect id="id_fossil" data-title="Fossil" x="200" y="440" width="80" height="160" fill="#f0f0f0" stroke="#333" stroke-width="1" />
    <text x="240" y="520" font-size="12" transform="rotate(-90, 240, 520)" fill="#333">Fossil</text>

    <rect id="id_tiffany" data-title="Tiffany" x="920" y="220" width="80" height="160" fill="#f0f0f0" stroke="#333" stroke-width="1" />
    <text x="960" y="300" font-size="12" transform="rotate(90, 960, 300)" fill="#333">Tiffany</text>

    <rect id="id_rolex" data-title="Rolex" x="920" y="440" width="80" height="160" fill="#f0f0f0" stroke="#333" stroke-width="1" />
    <text x="960" y="520" font-size="12" transform="rotate(90, 960, 520)" fill="#333">Rolex</text>

    
    <rect id="id_food_court" data-title="Food Court" x="520" y="100" width="160" height="80" fill="#fff3cd" stroke="#333" stroke-width="1" />
    <text x="600" y="140" font-size="12" text-anchor="middle" fill="#333">Food Court</text>

    
    <rect id="id_restrooms" data-title="Restrooms" x="520" y="620" width="160" height="80" fill="#d4edda" stroke="#333" stroke-width="1" />
    <text x="600" y="660" font-size="12" text-anchor="middle" fill="#333">Restrooms</text>

    
    <rect id="id_info" data-title="Info" x="300" y="300" width="80" height="80" fill="#cce5ff" stroke="#333" stroke-width="1" />
    <text x="340" y="340" font-size="10" text-anchor="middle" fill="#333">Info</text>

    <rect id="id_info" data-title="Info" x="820" y="300" width="80" height="80" fill="#cce5ff" stroke="#333" stroke-width="1" />
    <text x="860" y="340" font-size="10" text-anchor="middle" fill="#333">Info</text>

    
    <rect id="id_starbucks" data-title="Starbucks" x="200" y="100" width="80" height="80" fill="#f0f0f0" stroke="#333" stroke-width="1" />
    <text x="240" y="140" font-size="10" text-anchor="middle" fill="#333">Starbucks</text>

    <rect id="id_dunkin" data-title="Dunkin'" x="920" y="100" width="80" height="80" fill="#f0f0f0" stroke="#333" stroke-width="1" />
    <text x="960" y="140" font-size="10" text-anchor="middle" fill="#333">Dunkin'</text>

    <rect id="id_sunglass_hut" data-title="Sunglass Hut" x="200" y="700" width="80" height="80" fill="#f0f0f0" stroke="#333" stroke-width="1" />
    <text x="240" y="740" font-size="10" text-anchor="middle" fill="#333">Sunglass Hut</text>

    <rect id="id_perfume_shop" data-title="Perfume Shop" x="920" y="700" width="80" height="80" fill="#f0f0f0" stroke="#333" stroke-width="1" />
    <text x="960" y="740" font-size="10" text-anchor="middle" fill="#333">Perfume Shop</text>

    
    <rect id="id_escalator_up" data-title="Escalator Up" x="550" y="200" width="100" height="20" fill="#e9ecef" stroke="#333" stroke-width="1" />
    <text x="600" y="215" font-size="8" text-anchor="middle" fill="#333">Escalator Up</text>

    <rect id="id_escalator_down" data-title="Escalator Down" x="550" y="580" width="100" height="20" fill="#e9ecef" stroke="#333" stroke-width="1" />
    <text x="600" y="595" font-size="8" text-anchor="middle" fill="#333">Escalator Down</text>

    
    <rect x="200" y="400" width="100" height="40" fill="white" stroke="#333" stroke-width="1" />
    <rect x="900" y="400" width="100" height="40" fill="white" stroke="#333" stroke-width="1" />

    
    <circle cx="340" cy="440" r="10" fill="red" />
    <text x="340" y="440" font-size="10" text-anchor="middle" fill="white">YOU</text>
    <text x="340" y="460" font-size="10" text-anchor="middle" fill="red">ARE HERE</text>
<g transform="translate(600.0,400.0) scale(0.5)" pointer-events="none"><path d="M3,6 H21 L19,2 H5 Z M4,6 V18 H20 V6" fill="none" stroke="#555" stroke-width="2" stroke-linecap="round" stroke-linejoin="round" /></g><g transform="translate(150.0,100.0) scale(0.5)" pointer-events="none"><path d="M2,4 L10,8 L18,4 M2,4 V16 L10,20 L18,16 V4" fill="none" stroke="#555" stroke-width="2" stroke-linecap="round" stroke-linejoin="round" /></g><g transform="translate(410.0,100.0) scale(0.5)" pointer-events="none"><path d="M3,6 H21 L19,2 H5 Z M4,6 V18 H20 V6" fill="none" stroke="#555" stroke-width="2" stroke-linecap="round" stroke-linejoin="round" /></g><g transform="translate(760.0,100.0) scale(0.5)" pointer-events="none"><path d="M7,2 H13 A1,1 0 0 1 14,3 V17 A1,1 0 0 1 13,18 H7 A1,1 0 0 1 6,17 V3 A1,1 0 0 1 7,2 Z" fill="none" stroke="#555" stroke-width="2" stroke-linecap="round" stroke-linejoin="round" /></g><g transform="translate(1060.0,100.0) scale(0.5)" pointer-events="none"><path d="M4,12 H16 M4,14 H16" fill="none" stroke="#555" stroke-width="2" stroke-linecap="round" stroke-linejoin="round" /></g><g transform="translate(150.0,700.0) scale(0.5)" pointer-events="none"><path d="M2,10 L10,2 L18,10" fill="none" stroke="#555" stroke-width="2" stroke-linecap="round" stroke-linejoin="round" /></g><g transform="translate(410.0,700.0) scale(0.5)" pointer-events="none"><path d="M3,6 H21 L19,2 H5 Z M4,6 V18 H20 V6" fill="none" stroke="#555" stroke-width="2" stroke-linecap="round" stroke-linejoin="round" /></g><g transform="translate(760.0,700.0) scale(0.5)" pointer-events="none"><path d="M3,6 H21 L19,2 H5 Z M4,6 V18 H20 V6" fill="none" stroke="#555" stroke-width="2" stroke-linecap="round" stroke-linejoin="round" /></g><g transform="translate(1060.0,700.0) scale(0.5)" pointer-events="none"><path d="M3,6 H21 L19,2 H5 Z M4,6 V18 H20 V6" fill="none" stroke="#555" stroke-width="2" stroke-linecap="round" stroke-linejoin="round" /></g><g transform="translate(100.0,300.0) scale(0.5)" pointer-events="none"><path d="M3,6 H21 L19,2 H5 Z M4,6 V18 H20 V6" fill="none" stroke="#555" stroke-width="2" stroke-linecap="round" stroke-linejoin="round" /></g><g transform="translate(100.0,520.0) scale(0.5)" pointer-events="none"><path d="M3,6 H21 L19,2 H5 Z M4,6 V18 H20 V6" fill="none" stroke="#555" stroke-width="2" stroke-linecap="round" stroke-linejoin="round" /></g><g transform="translate(1100.0,300.0) scale(0.5)" pointer-events="none"><path d="M3,6 H21 L19,2 H5 Z M4,6 V18 H20 V6" fill="none" stroke="#555" stroke-width="2" stroke-linecap="round" stroke-linejoin="round" /></g><g transform="translate(1100.0,520.0) scale(0.5)" pointer-events="none"><path d="M3,6 H21 L19,2 H5 Z M4,6 V18 H20 V6" fill="none" stroke="#555" stroke-width="2" stroke-linecap="round" stroke-linejoin="round" /></g><g transform="translate(240.0,300.0) scale(0.5)" pointer-events="none"><path d="M3,6 H21 L19,2 H5 Z M4,6 V18 H20 V6" fill="none" stroke="#555" stroke-width="2" stroke-linecap="round" stroke-linejoin="round" /></g><g transform="translate(240.0,520.0) scale(0.5)" pointer-events="none"><path d="M3,6 H21 L19,2 H5 Z M4,6 V18 H20 V6" fill="none" stroke="#555" stroke-width="2" stroke-linecap="round" stroke-linejoin="round" /></g><g transform="translate(960.0,300.0) scale(0.5)" pointer-events="none"><path d="M3,6 H21 L19,2 H5 Z M4,6 V18 H20 V6" fill="none" stroke="#555" stroke-width="2" stroke-linecap="round" stroke-linejoin="round" /></g><g transform="translate(960.0,520.0) scale(0.5)" pointer-events="none"><path d="M3,6 H21 L19,2 H5 Z M4,6 V18 H20 V6" fill="none" stroke="#555" stroke-width="2" stroke-linecap="round" stroke-linejoin="round" /></g><g transform="translate(600.0,140.0) scale(0.5)" pointer-events="none"><path d="M4,12 H16 M4,14 H16" fill="none" stroke="#555" stroke-width="2" stroke-linecap="round" stroke-linejoin="round" /></g><g transform="translate(600.0,660.0) scale(0.5)" pointer-events="none"><path d="M3,6 H21 L19,2 H5 Z M4,6 V18 H20 V6" fill="none" stroke="#555" stroke-width="2" stroke-linecap="round" stroke-linejoin="round" /></g><g transform="translate(340.0,340.0) scale(0.5)" pointer-events="none"><path d="M3,6 H21 L19,2 H5 Z M4,6 V18 H20 V6" fill="none" stroke="#555" stroke-width="2" stroke-linecap="round" stroke-linejoin="round" /></g><g transform="translate(860.0,340.0) scale(0.5)" pointer-events="none"><path d="M3,6 H21 L19,2 H5 Z M4,6 V18 H20 V6" fill="none" stroke="#555" stroke-width="2" stroke-linecap="round" stroke-linejoin="round" /></g><g transform="translate(240.0,140.0) scale(0.5)" pointer-events="none"><path d="M3,6 H21 L19,2 H5 Z M4,6 V18 H20 V6" fill="none" stroke="#555" stroke-width="2" stroke-linecap="round" stroke-linejoin="round" /></g><g transform="translate(960.0,140.0) scale(0.5)" pointer-events="none"><path d="M3,6 H21 L19,2 H5 Z M4,6 V18 H20 V6" fill="none" stroke="#555" stroke-width="2" stroke-linecap="round" stroke-linejoin="round" /></g><g transform="translate(240.0,740.0) scale(0.5)" pointer-events="none"><path d="M3,6 H21 L19,2 H5 Z M4,6 V18 H20 V6" fill="none" stroke="#555" stroke-width="2" stroke-linecap="round" stroke-linejoin="round" /></g><g transform="translate(960.0,740.0) scale(0.5)" pointer-events="none"><path d="M3,6 H21 L19,2 H5 Z M4,6 V18 H20 V6" fill="none" stroke="#555" stroke-width="2" stroke-linecap="round" stroke-linejoin="round" /></g><g transform="translate(600.0,210.0) scale(0.5)" pointer-events="none"><path d="M3,6 H21 L19,2 H5 Z M4,6 V18 H20 V6" fill="none" stroke="#555" stroke-width="2" stroke-linecap="round" stroke-linejoin="round" /></g><g transform="translate(600.0,590.0) scale(0.5)" pointer-events="none"><path d="M3,6 H21 L19,2 H5 Z M4,6 V18 H20 V6" fill="none" stroke="#555" stroke-width="2" stroke-linecap="round" stroke-linejoin="round" /></g></svg>